<?xml version="1.0" encoding="UTF-8"?>
<svg xmlns="http://www.w3.org/2000/svg" width="619" height="204" viewBox="0 0 619 204">
  <path d="M 376 70 L 359 62 L 346 61 L 345 62 L 335 63 L 328 66 L 322 70 L 317 77 L 316 76 L 316 64 L 293 64 L 292 66 L 292 175 L 293 176 L 292 183 L 293 184 L 315 184 L 316 183 L 316 141 L 317 140 L 325 149 L 327 149 L 331 152 L 343 155 L 353 155 L 365 152 L 370 149 L 373 149 L 386 136 L 393 119 L 394 102 L 391 90 L 387 82 Z M 338 81 L 348 81 L 359 86 L 366 94 L 370 103 L 369 116 L 364 125 L 356 132 L 347 135 L 334 134 L 328 131 L 320 123 L 316 113 L 316 102 L 321 92 L 329 84 Z M 250 69 L 238 63 L 228 61 L 220 61 L 208 64 L 200 68 L 199 70 L 192 75 L 191 74 L 191 64 L 168 64 L 168 184 L 191 184 L 191 141 L 192 140 L 199 147 L 205 151 L 219 155 L 229 155 L 241 152 L 248 148 L 250 148 L 258 140 L 264 131 L 267 124 L 269 116 L 269 100 L 266 89 L 263 83 L 258 76 Z M 213 81 L 225 81 L 232 84 L 240 91 L 245 101 L 245 115 L 243 120 L 233 131 L 223 135 L 214 135 L 205 132 L 197 125 L 192 115 L 191 108 L 194 96 L 201 87 L 205 84 Z M 535 32 L 535 52 L 554 52 L 555 53 L 555 131 L 553 133 L 549 132 L 535 133 L 535 153 L 599 153 L 599 133 L 582 133 L 579 130 L 579 53 L 580 52 L 599 52 L 599 32 Z M 450 32 L 430 82 L 424 94 L 424 97 L 422 99 L 411 128 L 401 149 L 401 153 L 426 153 L 432 140 L 433 135 L 438 127 L 491 127 L 502 153 L 527 153 L 527 150 L 522 138 L 522 134 L 520 133 L 515 122 L 515 119 L 511 113 L 508 103 L 493 69 L 487 52 L 483 45 L 480 34 L 478 32 Z M 464 60 L 467 63 L 476 89 L 482 101 L 482 104 L 484 106 L 483 107 L 446 107 L 445 106 L 448 97 L 452 90 L 454 82 L 456 80 L 458 72 Z M 56 35 L 54 37 L 50 38 L 34 51 L 27 62 L 22 74 L 20 83 L 20 102 L 24 117 L 28 125 L 33 131 L 33 133 L 39 139 L 52 148 L 68 154 L 82 155 L 83 156 L 95 155 L 105 153 L 119 147 L 129 140 L 138 130 L 142 124 L 148 110 L 150 102 L 150 83 L 144 64 L 137 53 L 129 45 L 119 38 L 105 32 L 95 30 L 74 30 Z M 76 52 L 93 52 L 100 54 L 107 58 L 119 70 L 125 85 L 125 101 L 119 115 L 109 126 L 106 127 L 103 130 L 89 134 L 75 133 L 62 127 L 51 116 L 45 102 L 45 96 L 44 95 L 45 84 L 47 77 L 52 68 L 61 59 Z" fill="#08223d" fill-rule="evenodd"/>
</svg>
